<?xml version="1.0" encoding="UTF-8"?>
<svg id="Ebene_1" data-name="Ebene 1" xmlns="http://www.w3.org/2000/svg" viewBox="0 0 1377.959 772.105">
  <defs>
    
  </defs>
  <g>
    <path class="cls-1" d="M556.573,340.752l-18.76,88.077h-13.259l18.759-88.077h13.26Z"></path>
    <path class="cls-1" d="M581.234,352.345h-18.577l2.537-11.593h50.321l-2.537,11.593h-18.485l-16.222,76.484h-13.26l16.223-76.484Z"></path>
    <path class="cls-1" d="M702.678,375.855l-24.125,33.571c-10.791,15.002-16.55,20.443-29.013,20.443-14.629,0-21.757-11.921-18.753-26.016,2.028-9.45,5.901-15.587,23.6-26.196,13.102-7.733,15.104-11.217,16.352-16.636,1.416-6.379-.767-11.214-6.394-11.214-4.171,0-7.042,2.716-8.224,8.25-1.157,5.483.182,11.213,3.757,17.088l33.186,53.684h-14.951l-28.736-47.178c-4.641-7.956-6.708-15.56-4.68-24.919,2.392-11.001,9.596-17.06,20.168-17.06,14.111,0,19.976,12.263,17.141,23.392-2.262,8.891-5.991,12.438-22.454,22.503-12.467,7.682-15.078,12.413-16.13,18.297-1.273,7.302,1.064,14.281,8.357,14.281,6.823,0,10.332-4.25,18.055-15.223l18.96-27.068h13.885Z"></path>
    <path class="cls-1" d="M737.059,428.83l2.444-88.077h13.13c-1.145,23.694-2.822,54.929-4.501,69.533h.13c5.062-14.387,19.443-49.218,27.58-69.533h12.035c-.716,19.184-1.276,54.457-2.537,69.677h.221c5.307-16.935,19.246-51.782,25.742-69.677h13.208l-36.271,88.077h-13.375c.572-14.576.846-49.697,2.029-66.07l-.222.039c-4.513,13.979-18.818,47.877-26.317,66.031h-13.297Z"></path>
    <path class="cls-1" d="M829.774,398.347c-.676,3.507-1.052,6.768-1.052,9.522,0,6.99,2.261,11.266,7.874,11.266,6.471,0,9.108-4.585,10.707-8.537h12.727c-2.459,8.143-9.468,19.311-24.67,19.311-20.506,0-21.016-19.291-17.817-35.413,3.664-17.726,12.687-33.531,29.543-33.531,18.807,0,21.509,16.284,17.35,32.48,0,0-1.262,4.902-1.262,4.902h-33.399ZM852.451,388.654c.546-2.494,1.053-5.104,1.053-7.352,0-5.472-1.702-9.604-7.836-9.604-7.173,0-11.513,8.031-13.76,16.955h20.543Z"></path>
    <path class="cls-1" d="M887.843,336.293h13.091l-6.98,32.729c3.004-4.237,7.879-8.058,15.379-8.058,13.196,0,18.437,11.805,13.432,34.804-4.603,21.099-12.884,34.102-26.823,34.102-8.762,0-11.973-4.952-13.065-8.551-.598,2.69-1.455,5.848-2.015,7.511h-12.778c.963-4.291,2.458-11.405,4.044-18.645l15.717-73.892ZM909.764,395.613c3.34-15.685,1.912-23.602-5.99-23.602-9.137,0-12.838,9.188-15.854,23.836-3.444,16.677-1.417,23.067,6.353,23.067,7.253,0,12.229-7.915,15.491-23.302Z"></path>
    <path class="cls-1" d="M965.853,405.154c.052,6.987,2.727,14.216,11.655,14.216,6.354,0,10.681-3.703,11.992-10.42,1.364-6.979-.598-13.021-10.605-20.923-12.977-10.232-17.683-18.124-15.577-29.85,1.95-10.818,9.687-18.868,23.211-18.868,20.887,0,23.289,16.426,22.588,23.922h-12.674c.143-4.635-1.064-13.058-10.382-13.058-5.873,0-9.186,3.495-10.121,8.914-1.053,6.04.792,10.211,10.983,18.049,15.16,11.7,18.437,20.684,15.563,33.635-2.418,10.984-10.583,19.464-25.043,19.464-21.132,0-25.097-14.383-24.304-25.081h12.713Z"></path>
    <path class="cls-1" d="M1062.846,396.575c-3.472,17.434-11.624,33.334-29.479,33.334-17.253,0-22.927-13.867-18.363-35.803,4.341-21.163,15.367-33.142,29.141-33.142,18.866,0,22.628,15.989,18.701,35.61ZM1027.938,395.55c-3.262,15.767-1.246,23.494,6.549,23.494,7.405,0,12.267-9.342,15.334-23.343,2.678-12.349,3.211-23.743-6.521-23.743-7.346,0-12.789,11.107-15.361,23.592Z"></path>
    <path class="cls-1" d="M1067.328,428.83l19.67-92.42h13.13l-19.67,92.42h-13.13Z"></path>
    <path class="cls-1" d="M1142.469,409.651c-1.925,9.285-3.354,15.824-3.744,19.179h-12.778c.052-1.847.675-5.366,1.013-7.381-4.2,6.123-8.854,8.46-16.003,8.46-8.206,0-16.004-5.4-12.819-20.373l10.062-47.531h13.077l-9.529,44.46c-1.533,7.251-.871,12.307,5.848,12.307,6.198,0,10.784-4.275,13.383-16.45l8.502-40.316h13.077l-10.088,47.646Z"></path>
    <path class="cls-1" d="M1159.642,362.004h8.826l3.718-16.977h12.999l-3.718,16.977h10.281l-2.225,10.644h-10.372l-8.618,39.771c-.896,4.275-.701,7.133,4.368,7.133,1.948,0,3.951-.246,5.251-.507l-1.951,9.654c-2.745.924-6.687,1.04-9.196,1.04-9.846,0-14.436-4.005-11.991-15.63l9.138-41.462h-8.825l2.315-10.644Z"></path>
    <path class="cls-1" d="M1201.679,362.004h13.13l-14.236,66.825h-13.13l14.236-66.825ZM1207.204,336.41h13.13l-3.186,14.759h-13.13l3.186-14.759Z"></path>
    <path class="cls-1" d="M1267.589,396.575c-3.472,17.434-11.624,33.334-29.479,33.334-17.253,0-22.927-13.867-18.363-35.803,4.341-21.163,15.367-33.142,29.141-33.142,18.866,0,22.628,15.989,18.701,35.61ZM1232.681,395.55c-3.262,15.767-1.246,23.494,6.549,23.494,7.405,0,12.267-9.342,15.334-23.343,2.678-12.349,3.211-23.743-6.521-23.743-7.346,0-12.789,11.107-15.361,23.592Z"></path>
    <path class="cls-1" d="M1281.875,382.754c2.951-13.716,3.771-18.239,4.213-20.75h12.817c-.169,1.625-.767,5.146-1.273,7.654,3.25-5.03,8.19-8.694,16.08-8.694,10.053,0,16.33,6.646,13.08,22.077l-9.803,45.788h-13.038l9.49-44.734c1.624-7.563.13-12.006-6.225-12.006-6.704,0-10.848,4.35-13.316,15.979l-8.659,40.761h-13.169l9.803-46.075Z"></path>
    <path class="cls-1" d="M1343.427,409.559c-.063,5.131,1.882,10.306,8.641,10.306,4.846,0,7.783-2.271,8.642-6.378,1.195-5.666-.663-9.368-8.983-14.672-12.25-7.749-14.823-14.096-12.834-23.221,1.819-8.412,8.268-14.63,19.559-14.63,16.179,0,20.34,11.092,19.378,19.727h-12.088c.077-5.188-1.417-9.721-7.445-9.721-3.04,0-6.016,1.246-6.951,5.456-1.143,4.91.662,7.717,7.435,12.006,13.979,8.736,16.593,15.627,14.656,25.625-1.95,9.922-9.922,15.812-22.199,15.812-16.583,0-20.572-10.99-20.079-20.311h12.271Z"></path>
  </g>
  <g>
    <path class="cls-1" d="M372.889,229.688c8-36.799,21.6-97.998,30.4-132.797h-2.8c-20,60.799-46.399,142.796-67.199,202.796h-75.599c8-72.799,14-133.597,21.199-201.197h-2.8c-5.2,32-14.8,82.799-24.8,129.998l-15.2,71.199h-87.199L207.291,25.292h134.799c-2.8,30-9.6,101.999-14,137.198h3.2c18-52.799,27.2-84.399,44.8-137.198h136.398l-58.399,274.396h-95.999l14.799-69.999Z"></path>
    <path class="cls-1" d="M554.086,25.292h115.999c64,0,104.398,30,104.398,80.399,0,68.398-57.198,99.598-124.398,99.598h-36.8l-20,94.398h-97.599l58.399-274.396ZM626.486,143.29h14c25.999,0,33.999-17.2,33.999-33.2,0-14.8-6-23.6-22.399-23.6h-13.6l-12,56.799Z"></path>
    <path class="cls-1" d="M1039.675,210.888c-17.2,58.4-62.4,95.999-139.599,95.999-83.199,0-113.999-48.399-113.999-113.198,0-73.199,39.6-175.597,154.799-175.597,95.997,0,117.198,57.198,115.198,100.799h-99.999c2-20.8.4-34.4-18-34.4-31.199,0-47.6,78-47.6,122.798,0,19.6,6,32.399,19.601,32.399,18,0,24-12.8,29.6-28.8h99.999Z"></path>
    <path class="cls-1" d="M1105.277,25.292h100.799l-43.6,205.196h105.6l-24.4,69.199h-196.798l58.399-274.396Z"></path>
  </g>
  <text></text>
</svg>